<svg xmlns="http://www.w3.org/2000/svg" width="1600" height="1000" viewBox="0 0 1600 1000"><defs>
 <linearGradient id="sky" x2="0" y2="1"><stop stop-color="#c5dde0"/><stop offset="1" stop-color="#f7e5c6"/></linearGradient>
 <linearGradient id="sea" x2="0" y2="1"><stop stop-color="#87b8ba"/><stop offset="1" stop-color="#427d87"/></linearGradient>
 <linearGradient id="wall" x2="1" y2="1"><stop stop-color="#eee3c9"/><stop offset="1" stop-color="#d7c6a7"/></linearGradient>
 <linearGradient id="glass" x2="1" y2="1"><stop stop-color="#5d8587"/><stop offset="1" stop-color="#b1c9b9"/></linearGradient>
 <pattern id="grain" width="7" height="7" patternUnits="userSpaceOnUse"><circle cx="1" cy="2" r=".65" fill="#243e40" opacity=".07"/><circle cx="5" cy="5" r=".6" fill="#fff" opacity=".22"/></pattern>
 <filter id="blur"><feGaussianBlur stdDeviation="14"/></filter>
 </defs><rect width="1600" height="1000" fill="url(#sky)"/><circle cx="380" cy="230" r="92" fill="#fff4d4" opacity=".8"/><g fill="none" stroke="#f5f1dd" stroke-width="13" opacity=".48"><path d="M35 180Q230 153 420 177M520 110Q700 86 900 107M1000 240Q1230 220 1500 249"/></g><path d="M0 470Q520 445 1600 470V1000H0Z" fill="url(#sea)"/><g fill="none" stroke="#d1e3d7" opacity=".55" stroke-width="3"><path d="M-100 510q150 -12 310 0"/><path d="M73 535q150 -12 310 0"/><path d="M246 560q150 -12 310 0"/><path d="M419 585q150 -12 310 0"/><path d="M592 610q150 -12 310 0"/><path d="M765 635q150 -12 310 0"/><path d="M938 660q150 -12 310 0"/><path d="M1111 685q150 -12 310 0"/><path d="M1284 710q150 -12 310 0"/><path d="M-43 735q150 -12 310 0"/><path d="M130 760q150 -12 310 0"/><path d="M303 785q150 -12 310 0"/><path d="M476 810q150 -12 310 0"/><path d="M649 835q150 -12 310 0"/><path d="M822 860q150 -12 310 0"/><path d="M995 885q150 -12 310 0"/></g><path d="M0 470Q120 450 220 470T480 470" stroke="#769b9b" stroke-width="9" fill="none"/><path d="M685 510h229l555 490H211Z" fill="#a9967a"/><g stroke="#817d69" stroke-width="5"><path d="M661 535h281"/><path d="M627.4 570h353.8"/><path d="M584.2 615h447.4"/><path d="M526.6 675h572.2"/><path d="M449.8 755h738.6"/><path d="M353.8 855h946.6"/><path d="M239.56 974h1194.12"/><path d="M745 510L630 1000M805 510l120 490M865 510l338 490"/></g>
<g stroke="#776f5e" fill="none"><path d="M675 611v-85M926 611v-85" stroke-width="10"/><path d="M646 634v-104M960 634v-104" stroke-width="13"/><path d="M559 703v-123M1062 703v-123" stroke-width="16"/><path d="M414 818v-142M1232 818v-142" stroke-width="19"/><path d="M211 979v-161M1470 979v-161" stroke-width="22"/><path d="M209 763L680 450h240l549 313" stroke-width="16"/><path d="M209 829L680 487h240l549 342" stroke-width="10"/></g>
<path d="M18 466l191 -30 67 31" fill="#718e88"/><path d="M1140 543q40 19 80 0l-17 25h-47Z" fill="#ece4c9"/><path d="M1180 543V405l-60 111h60" fill="#f4ead2"/><path d="M1180 405v138" stroke="#7f8d7d" stroke-width="4"/><path d="M500 324q18 -16 36 0q18 -16 36 0M600 273q13 -12 26 0q13 -12 26 0" stroke="#7d9b96" stroke-width="4" fill="none"/><rect width="1600" height="1000" fill="url(#grain)"/></svg>