<svg xmlns="http://www.w3.org/2000/svg" width="90" height="140" viewBox="0 0 90 140" fill="none"><g stroke="#657e73" stroke-width="1.4"><path d="M37 137Q53 96 47 64M45 107Q22 102 13 84M47 91Q68 82 78 61"/><path d="M44 108Q19 108 15 88Q37 87 44 108Z" fill="#8b9b7a" fill-opacity=".5"/><path d="M48 91Q72 92 78 63Q57 68 48 91Z" fill="#8b9b7a" fill-opacity=".45"/><path d="M37 126Q23 122 22 110Q35 111 37 126Z" fill="#9ea384" fill-opacity=".55"/></g><g fill="#67889e" fill-opacity=".8" stroke="#53758b" stroke-width=".8"><path d="M46 58C17 49 27 22 41 30Q54 37 46 58Z"/><path d="M48 55C38 28 63 18 69 33Q72 48 48 55Z"/><path d="M49 58C72 37 91 58 77 69Q62 77 49 58Z"/><path d="M47 60C74 68 58 94 46 83Q37 73 47 60Z"/><path d="M44 58C34 85 9 67 21 55Q32 47 44 58Z"/></g><g stroke="#c8d7d6" stroke-width=".8" opacity=".65"><path d="M46 57 36 37M48 57 63 34M50 59 76 59M47 62 50 79M43 58 25 63"/></g><circle cx="46" cy="58" r="6" fill="#c0a56c"/><circle cx="45" cy="57" r="2" fill="#eee0b1"/><path d="M62 20Q66 13 76 9Q78 24 62 20Z" fill="#8d9e82" opacity=".6"/></svg>
